<svg width="100" height="100" viewBox="0 0 100 100" fill="none" xmlns="http://www.w3.org/2000/svg">
<path d="M87.1401 15.6782C87.1401 10.5404 81.9996 7.9755 78.2809 10.3883C78.2809 6.34665 75.4712 4 72.4891 4C69.5268 4 66.6972 6.32094 66.6972 10.3883C62.853 7.89468 57.838 10.7762 57.838 15.4739V40.5223C56.9284 36.9949 52.948 34.8408 49.5082 36.7157C47.596 35.6541 45.5015 35.8892 43.9157 36.8428C42.6378 37.6113 41.5877 38.9155 41.1606 40.4833V15.4739C41.1606 12.167 38.5623 9.4765 35.3687 9.4765C34.2427 9.4765 33.1911 9.81006 32.3014 10.3883C32.3014 6.28788 29.4342 4 26.5095 4C23.5465 4 20.7176 6.3202 20.7176 10.3883C19.8279 9.81079 18.7764 9.4765 17.6511 9.4765C14.649 9.4765 11.8592 11.8952 11.8592 15.6782C10.9687 15.1007 9.9172 14.7664 8.79189 14.7664C5.5983 14.7664 3.00001 17.4569 3.00001 20.7638V62.7993C2.9922 71.5878 9.33964 71.3601 9.3368 77.093C9.33397 82.3138 9.33397 75.1431 9.33397 86.2945C7.66799 86.7764 6.44264 88.3605 6.44264 90.2369V90.9069C6.44264 93.164 8.21575 95 10.3947 95H39.86C42.0397 95 43.8128 93.164 43.8128 90.9069V90.2369C43.8128 88.428 42.6733 86.8903 41.0981 86.3503C41.0981 78.439 40.8413 74.9587 42.4597 73.2982C46.8645 68.7813 47.4314 68.3875 49.4996 63.4862C51.4927 68.2097 52.0646 68.7093 56.5396 73.2982C58.1559 74.9557 57.9012 78.3934 57.9012 86.3503C56.3267 86.8903 55.1865 88.428 55.1865 90.2369V90.9069C55.1865 93.164 56.9603 95 59.1393 95H77.0506C77.0506 95 77.0506 94.3689 77.0506 93.5894C77.0506 92.8098 77.0506 92.1787 77.0506 92.1787H59.1393C58.4624 92.1787 57.9118 91.6086 57.9118 90.9069V90.2369C57.9118 89.5352 58.4624 88.9651 59.1393 88.9651H88.6046C89.2815 88.9651 89.8328 89.5352 89.8328 90.2369V90.9069C89.8328 91.6086 89.2815 92.1787 88.6046 92.1787H77.0506C77.0506 92.1787 77.0506 92.8098 77.0506 93.5894C77.0506 94.3689 77.0506 95 77.0506 95H88.6046C90.7843 95 92.5574 93.164 92.5574 90.9069V90.2369C92.5574 88.3605 91.3313 86.7764 89.6653 86.2945C89.6653 74.8617 89.666 82.7253 89.6632 77.093C89.6597 71.3718 96.0071 71.5798 95.9993 62.8V47.294C95.9993 47.294 95.2525 47.294 94.4997 47.294C93.7469 47.294 93.2747 47.294 93.2747 47.294V62.8015C93.2818 70.3807 86.9336 69.6791 86.9379 77.0937C86.9407 82.2991 86.9407 76.4589 86.9407 86.1438H60.6258C60.6258 72.6759 60.9358 73.8889 55.6406 68.4051C53.3162 66.0217 53.4077 65.7021 43.9987 43.406C43.9951 43.3972 43.9916 43.3883 43.988 43.3803C43.187 41.5817 44.0987 39.9955 45.2843 39.2821C46.6445 38.4651 48.2487 38.6576 49.7082 40.6405L56.761 50.2277C57.9842 51.8918 60.5633 50.9933 60.5633 48.8994V15.4739C60.5633 13.7224 61.9391 12.2978 63.6306 12.2978C65.3221 12.2978 66.6979 13.7224 66.6979 15.4739V47.5446C66.6979 48.3241 67.3074 48.9552 68.0602 48.9552C68.8123 48.9552 69.4225 48.3241 69.4225 47.5446V9.99741C69.4225 8.2466 70.7983 6.82127 72.4898 6.82127C74.1806 6.82127 75.5571 8.2466 75.5571 9.99741V47.5446C75.5571 48.3241 76.1666 48.9552 76.9194 48.9552C77.6715 48.9552 78.2817 48.3241 78.2817 47.5446V15.4739C78.2817 13.7224 79.6574 12.2978 81.3489 12.2978C83.0398 12.2978 84.4155 13.7224 84.4155 15.4739V47.5446C84.4155 48.3241 85.0257 48.9552 85.7785 48.9552C86.5306 48.9552 87.1408 48.3241 87.1408 47.5446V20.7638C87.1408 19.0123 88.5166 17.5877 90.2074 17.5877C91.8989 17.5877 93.2747 19.0123 93.2747 20.7638V47.294C93.2747 47.294 93.7469 47.294 94.4997 47.294C95.2525 47.294 95.9993 47.294 95.9993 47.294L96 20.7638C95.9993 16.0668 90.985 13.1831 87.1401 15.6782ZM41.5075 44.5484L42.0482 45.8298L41.1606 47.0369V43.5617C41.2471 43.8879 41.3607 44.2171 41.5075 44.5484ZM41.0882 90.9069C41.0882 91.6086 40.5369 92.1787 39.86 92.1787H10.3947C9.71782 92.1787 9.16723 91.6086 9.16723 90.9069V90.2369C9.16723 89.536 9.71782 88.9651 10.3947 88.9651H39.86C40.5369 88.9651 41.0882 89.536 41.0882 90.2369V90.9069ZM40.5426 71.294C38.0273 73.8728 38.3735 77.9386 38.3735 86.1438H12.0586C12.0586 73.0146 12.0571 85.1527 12.0614 77.0945C12.0656 69.6644 5.71821 70.4057 5.7246 62.8V20.7638C5.7246 19.0123 7.10037 17.5877 8.79189 17.5877C10.4834 17.5877 11.8592 19.0123 11.8592 20.7638V47.5446C11.8592 48.3241 12.4687 48.9552 13.2215 48.9552C13.9743 48.9552 14.5838 48.3241 14.5838 47.5446C14.5838 46.0759 14.5838 16.9367 14.5838 15.4739C14.5838 13.7224 15.9595 12.2978 17.6511 12.2978C19.3419 12.2978 20.7183 13.7224 20.7183 15.4739V47.5446C20.7183 48.3241 21.3278 48.9552 22.0806 48.9552C22.8327 48.9552 23.4429 48.3241 23.4429 47.5446C23.4429 46.7665 23.4429 14.0155 23.4429 9.99741C23.4429 8.2466 24.8187 6.82127 26.5102 6.82127C28.201 6.82127 29.5768 8.2466 29.5768 9.99741V47.5446C29.5768 48.3241 30.187 48.9552 30.9391 48.9552C31.6919 48.9552 32.3021 48.3241 32.3021 47.5446V15.4739C32.3021 13.7224 33.6779 12.2978 35.3694 12.2978C37.0602 12.2978 38.436 13.7224 38.436 15.4739V48.8994C38.436 50.9948 41.0158 51.8911 42.2383 50.2277L43.2977 48.7892L48.0132 59.9633C45.2084 66.6095 45.6263 66.0798 40.5426 71.294ZM55.0616 43.262C51.4814 38.3945 51.9575 39.044 51.8234 38.8559C53.8625 38.5937 56.0692 40.7845 55.0616 43.262ZM56.9504 45.8298C57.5925 44.3089 57.6926 44.1172 57.8387 43.5448V47.0369L56.9504 45.8298Z" fill="black"/>
</svg>
