<svg width="67" height="19" viewBox="0 0 67 19" fill="none" xmlns="http://www.w3.org/2000/svg">
<path opacity="0.7" d="M10.45 10.827H3.838L2.47 14H0L6.118 0.472H8.113L14.25 14H11.799L10.45 10.827ZM9.633 8.927L7.144 3.132L4.655 8.927H9.633ZM21.414 4.158C22.2373 4.158 22.9657 4.37333 23.599 4.804C24.245 5.222 24.7453 5.81733 25.1 6.59C25.4673 7.35 25.651 8.224 25.651 9.212C25.651 10.2 25.4737 11.0677 25.119 11.815C24.7643 12.5623 24.264 13.1387 23.618 13.544C22.9847 13.9493 22.25 14.152 21.414 14.152C20.7173 14.152 20.0967 14.0063 19.552 13.715C19.0073 13.411 18.5893 12.993 18.298 12.461V18.104H15.942V7.122C15.942 6.10867 15.8913 5.203 15.79 4.405H18.013L18.203 6.058C18.4563 5.46267 18.868 5.00033 19.438 4.671C20.008 4.329 20.6667 4.158 21.414 4.158ZM20.768 12.29C21.566 12.29 22.1803 12.024 22.611 11.492C23.0417 10.96 23.257 10.2 23.257 9.212C23.257 8.21133 23.0417 7.43233 22.611 6.875C22.1803 6.305 21.5723 6.02 20.787 6.02C19.9763 6.02 19.3557 6.29233 18.925 6.837C18.4943 7.38167 18.279 8.16067 18.279 9.174C18.279 10.1747 18.4943 10.9473 18.925 11.492C19.3557 12.024 19.97 12.29 20.768 12.29ZM31.0896 6.191V10.485C31.0896 11.6123 31.6152 12.176 32.6666 12.176C32.9579 12.176 33.2746 12.1253 33.6166 12.024V13.905C33.1986 14.057 32.6919 14.133 32.0966 14.133C31.0072 14.133 30.1712 13.829 29.5886 13.221C29.0059 12.613 28.7146 11.739 28.7146 10.599V6.191H26.8716V4.405H28.7146V2.068L31.0896 1.27V4.405H33.6356V6.191H31.0896ZM44.0658 9.326H37.4538C37.5044 10.352 37.7578 11.112 38.2138 11.606C38.6824 12.0873 39.3728 12.328 40.2848 12.328C41.3361 12.328 42.3114 11.986 43.2108 11.302L43.8948 12.936C43.4388 13.3033 42.8751 13.601 42.2038 13.829C41.5451 14.0443 40.8738 14.152 40.1898 14.152C38.6191 14.152 37.3841 13.7087 36.4848 12.822C35.5854 11.9353 35.1358 10.7193 35.1358 9.174C35.1358 8.19867 35.3321 7.331 35.7248 6.571C36.1174 5.811 36.6684 5.222 37.3778 4.804C38.0871 4.37333 38.8914 4.158 39.7908 4.158C41.1081 4.158 42.1468 4.58867 42.9068 5.45C43.6794 6.29867 44.0658 7.47033 44.0658 8.965V9.326ZM39.8478 5.868C39.2144 5.868 38.6951 6.058 38.2898 6.438C37.8971 6.80533 37.6438 7.34367 37.5298 8.053H41.9948C41.9188 7.331 41.6971 6.78633 41.3298 6.419C40.9751 6.05167 40.4811 5.868 39.8478 5.868ZM53.032 14L48.833 9.573V14H46.477V0.0159988H48.833V8.642L52.785 4.424H55.654L51.341 9.003L55.996 14H53.032ZM66.3889 4.405V14H64.0519V12.461C63.7606 12.993 63.3426 13.411 62.7979 13.715C62.2533 14.0063 61.6326 14.152 60.9359 14.152C60.0999 14.152 59.3589 13.9493 58.7129 13.544C58.0669 13.1387 57.5666 12.5623 57.2119 11.815C56.8573 11.0677 56.6799 10.2 56.6799 9.212C56.6799 8.224 56.8573 7.35 57.2119 6.59C57.5793 5.81733 58.0859 5.222 58.7319 4.804C59.3779 4.37333 60.1126 4.158 60.9359 4.158C61.6326 4.158 62.2533 4.31 62.7979 4.614C63.3426 4.90533 63.7606 5.317 64.0519 5.849V4.405H66.3889ZM61.5819 12.29C62.3673 12.29 62.9753 12.0177 63.4059 11.473C63.8366 10.9283 64.0519 10.162 64.0519 9.174C64.0519 8.16067 63.8366 7.38167 63.4059 6.837C62.9753 6.29233 62.3609 6.02 61.5629 6.02C60.7776 6.02 60.1633 6.305 59.7199 6.875C59.2893 7.43233 59.0739 8.21133 59.0739 9.212C59.0739 10.2 59.2893 10.96 59.7199 11.492C60.1633 12.024 60.7839 12.29 61.5819 12.29Z" fill="#C4C4C4"/>
</svg>
