<svg width="100" height="100" viewBox="0 0 100 100" fill="none" xmlns="http://www.w3.org/2000/svg">
<path d="M73.0546 55.7118L50.5644 57.5371C50.5015 57.5423 50.4382 57.5423 50.3753 57.5371L27.8851 55.7118C27.7218 55.6986 27.5577 55.7199 27.4029 55.7743C27.2482 55.8287 27.1062 55.9151 26.9859 56.028C26.8656 56.1409 26.7696 56.2779 26.7039 56.4304C26.6382 56.5829 26.6043 56.7475 26.6042 56.9139C26.6042 57.2172 26.7166 57.5094 26.919 57.7323C27.1214 57.9551 27.3989 58.0923 27.6964 58.1165L50.3753 59.957L50.4698 59.9651L73.2433 58.1157C73.5407 58.0915 73.8183 57.9543 74.0207 57.7315C74.2231 57.5086 74.3355 57.2164 74.3354 56.9131C74.3353 56.7468 74.3013 56.5822 74.2356 56.4298C74.1698 56.2775 74.0738 56.1406 73.9535 56.0278C73.8332 55.9149 73.6912 55.8286 73.5365 55.7742C73.3818 55.7199 73.2178 55.6986 73.0546 55.7118Z" fill="black"/>
<path d="M73.0546 50.083L50.5644 51.9083C50.5015 51.9136 50.4382 51.9136 50.3753 51.9083L27.8851 50.083C27.7218 50.0698 27.5577 50.0911 27.4029 50.1455C27.2482 50.1999 27.1062 50.2863 26.9859 50.3992C26.8656 50.5122 26.7696 50.6492 26.7039 50.8016C26.6382 50.9541 26.6043 51.1187 26.6042 51.2852C26.6042 51.5884 26.7166 51.8806 26.919 52.1035C27.1214 52.3263 27.3989 52.4635 27.6964 52.4877L50.3753 54.3283L50.4698 54.3363L73.2433 52.4869C73.5407 52.4627 73.8183 52.3255 74.0207 52.1027C74.2231 51.8798 74.3355 51.5876 74.3354 51.2843C74.3353 51.118 74.3013 50.9534 74.2356 50.8011C74.1698 50.6487 74.0738 50.5118 73.9535 50.399C73.8332 50.2861 73.6912 50.1998 73.5365 50.1455C73.3818 50.0911 73.2178 50.0698 73.0546 50.083Z" fill="black"/>
<path d="M18.2292 59.4131H9.31519C7.64029 59.4131 6.034 58.7368 4.84968 57.5331C3.66535 56.3293 3 54.6967 3 52.9944V40.1288C3 38.4264 3.66535 36.7938 4.84968 35.5901C6.034 34.3863 7.64029 33.7101 9.31519 33.7101H18.2292C18.544 33.7101 18.8458 33.8372 19.0683 34.0634C19.2909 34.2896 19.4159 34.5963 19.4159 34.9162C19.4159 35.2361 19.2909 35.5429 19.0683 35.7691C18.8458 35.9953 18.544 36.1224 18.2292 36.1224H9.31519C8.26976 36.1224 7.26714 36.5445 6.52791 37.2958C5.78868 38.0472 5.37339 39.0662 5.37339 40.1288V52.9944C5.37339 54.0569 5.78868 55.076 6.52791 55.8273C7.26714 56.5787 8.26976 57.0008 9.31519 57.0008H18.2292C18.544 57.0008 18.8458 57.1279 19.0683 57.3541C19.2909 57.5803 19.4159 57.887 19.4159 58.2069C19.4159 58.5268 19.2909 58.8336 19.0683 59.0598C18.8458 59.286 18.544 59.4131 18.2292 59.4131Z" fill="black"/>
<path d="M91.6203 59.4131H82.7062C82.3915 59.4131 82.0897 59.286 81.8671 59.0598C81.6446 58.8336 81.5195 58.5268 81.5195 58.2069C81.5195 57.887 81.6446 57.5803 81.8671 57.3541C82.0897 57.1279 82.3915 57.0008 82.7062 57.0008H91.6203C92.6657 57.0008 93.6683 56.5787 94.4075 55.8273C95.1468 55.076 95.5621 54.0569 95.5621 52.9944V40.1288C95.5621 39.0662 95.1468 38.0472 94.4075 37.2958C93.6683 36.5445 92.6657 36.1224 91.6203 36.1224H82.7062C82.3915 36.1224 82.0897 35.9953 81.8671 35.7691C81.6446 35.5429 81.5195 35.2361 81.5195 34.9162C81.5195 34.5963 81.6446 34.2896 81.8671 34.0634C82.0897 33.8372 82.3915 33.7101 82.7062 33.7101H91.6203C93.2952 33.7101 94.9015 34.3863 96.0858 35.5901C97.2701 36.7938 97.9355 38.4264 97.9355 40.1288V52.9944C97.9355 54.6967 97.2701 56.3293 96.0858 57.5331C94.9015 58.7368 93.2952 59.4131 91.6203 59.4131V59.4131Z" fill="black"/>
<path fill-rule="evenodd" clip-rule="evenodd" d="M83.6691 28.4901H17.2662C16.8078 28.4901 16.4362 28.8617 16.4362 29.3201V65.4382C16.4362 65.8528 16.7421 66.2038 17.1528 66.2605L49.9443 70.7835C50.0187 70.7937 50.0942 70.7938 50.1687 70.7838L83.78 66.2519C84.1919 66.1964 84.4992 65.8449 84.4992 65.4293V29.3201C84.4992 28.8617 84.1275 28.4901 83.6691 28.4901ZM17.2662 26C15.4325 26 13.946 27.4865 13.946 29.3201V65.4382C13.946 67.0966 15.1697 68.5007 16.8125 68.7273L49.6041 73.2502C49.9017 73.2913 50.2036 73.2917 50.5014 73.2516L84.1128 68.7197C85.7601 68.4976 86.9893 67.0916 86.9893 65.4293V29.3201C86.9893 27.4865 85.5028 26 83.6691 26H17.2662Z" fill="black"/>
</svg>
