<svg width="100" height="100" viewBox="0 0 100 100" fill="none" xmlns="http://www.w3.org/2000/svg">
<path fill-rule="evenodd" clip-rule="evenodd" d="M59.9207 69.3032C59.9207 63.9293 64.277 59.573 69.6508 59.573C75.0246 59.573 79.381 63.9293 79.381 69.3032V86.5591C79.381 91.9329 75.0246 96.2892 69.6508 96.2892C64.277 96.2892 59.9207 91.9329 59.9207 86.5591V69.3032ZM76.381 79.4311V86.5591C76.381 90.276 73.3678 93.2892 69.6508 93.2892C65.9339 93.2892 62.9207 90.276 62.9207 86.5591V79.4311H76.381ZM76.381 76.4311H62.9207V69.3032C62.9207 65.5862 65.9339 62.573 69.6508 62.573C73.3678 62.573 76.381 65.5862 76.381 69.3032V76.4311Z" fill="black"/>
<path fill-rule="evenodd" clip-rule="evenodd" d="M28.1379 4.5C28.1226 4.5013 28.09 4.50483 28.0463 4.51334C27.9514 4.5318 27.8412 4.56648 27.7442 4.62312C27.6567 4.67421 27.5803 4.74192 27.5186 4.84999C27.4566 4.95867 27.3651 5.18609 27.3651 5.62259V16.1129C27.3651 16.5464 27.6489 16.9662 28.7392 17.302C29.2223 17.4508 29.7261 17.5304 30.1232 17.5712C30.3181 17.5912 30.4787 17.601 30.5871 17.6058C30.6411 17.6082 30.6816 17.6093 30.7063 17.6098L30.7311 17.6102C30.7319 17.6102 30.7326 17.6102 30.733 17.6102H60.2932H60.2943L60.2977 17.6102L60.3264 17.6098C60.3539 17.6094 60.3973 17.6085 60.4545 17.6066C60.569 17.6028 60.7369 17.5951 60.9399 17.5795C61.3522 17.5477 61.88 17.4855 62.3898 17.3677C62.9223 17.2447 63.317 17.0873 63.5453 16.929C63.6079 16.8857 63.6425 16.8527 63.66 16.8337V5.62259C63.66 5.18609 63.5684 4.95867 63.5064 4.84999C63.4447 4.74192 63.3683 4.67421 63.2808 4.62312C63.1838 4.56648 63.0736 4.5318 62.9788 4.51334C62.9351 4.50483 62.9024 4.5013 62.8872 4.5H28.1379ZM62.9146 3V1.5H28.1105V3C28.1105 1.5 28.1096 1.5 28.1088 1.5L28.107 1.5L28.1032 1.50002L28.095 1.50007L28.0758 1.50035C28.0618 1.50061 28.0455 1.50105 28.0269 1.50178C27.9898 1.50322 27.9435 1.50579 27.8893 1.51032C27.7814 1.51932 27.639 1.53631 27.473 1.56861C27.1469 1.63211 26.6957 1.76134 26.2314 2.03252C25.2047 2.6321 24.3651 3.78372 24.3651 5.62259V16.1129C24.3651 18.6767 26.5138 19.7556 27.856 20.1691C28.3401 20.3182 28.815 20.4158 29.2302 20.4801V21.8441C29.1556 21.8536 29.0789 21.8638 29.0001 21.8749C28.0055 22.0153 26.6532 22.2989 25.2801 22.8805C23.9076 23.4618 22.4549 24.3665 21.3416 25.781C20.2108 27.2178 19.5 29.094 19.5 31.4738V84.6749C19.5 87.2399 20.0656 89.2351 21.011 90.7623C21.9579 92.292 23.2256 93.2547 24.4699 93.8493C25.7015 94.4378 26.9126 94.668 27.7996 94.7555C28.247 94.7996 28.6233 94.8085 28.8941 94.8058C29.0298 94.8045 29.1399 94.8003 29.2203 94.796C29.246 94.7946 29.2686 94.7933 29.2882 94.792H64.4115V91.792H29.1651L29.1047 91.7975L29.1024 91.7977L29.1009 91.7978C29.0983 91.798 29.0944 91.7983 29.0893 91.7986C29.0822 91.799 29.0729 91.7996 29.0612 91.8002C29.021 91.8024 28.9542 91.8051 28.8648 91.806C28.6853 91.8077 28.4184 91.8019 28.094 91.77C27.4372 91.7052 26.59 91.5374 25.7633 91.1424C24.9493 90.7535 24.1587 90.1474 23.5618 89.1833C22.9635 88.2167 22.5 86.7931 22.5 84.6749L22.5 74.5606H60.2949V71.5606H22.5V44.5881H68.1508V60.3218C68.1508 60.3219 68.1508 60.3223 69.6508 60.3223C71.1508 60.3223 71.1508 60.3223 71.1508 60.3222V31.4738C71.1508 29.1085 70.4723 27.2402 69.3851 25.8035C68.3124 24.386 66.9087 23.4753 65.5775 22.889C64.2474 22.3031 62.9377 22.0175 61.9747 21.8761C61.9135 21.8671 61.8535 21.8587 61.7949 21.8508V20.5092C62.1828 20.4625 62.6204 20.3934 63.0651 20.2907C63.7488 20.1327 64.5704 19.8686 65.2543 19.3947C65.9732 18.8964 66.66 18.0663 66.66 16.8623V5.62259C66.66 3.78372 65.8204 2.6321 64.7937 2.03252C64.3293 1.76134 63.8782 1.63211 63.552 1.56861C63.3861 1.53631 63.2437 1.51932 63.1357 1.51032C63.0815 1.50579 63.0352 1.50322 62.9981 1.50178C62.9796 1.50105 62.9632 1.50061 62.9492 1.50035L62.9301 1.50007L62.9219 1.50002L62.9181 1.5L62.9163 1.5C62.9154 1.5 62.9146 1.5 62.9146 3ZM58.7949 20.6102H32.2302V21.7314H58.7949V20.6102ZM30.7302 24.7314L30.7227 24.7315C30.7114 24.7317 30.6913 24.732 30.6632 24.7328C30.607 24.7344 30.5186 24.7377 30.4027 24.7448C30.1704 24.7588 29.8305 24.7874 29.4195 24.8455C28.5898 24.9626 27.5095 25.1942 26.4501 25.6429C25.39 26.0919 24.4102 26.7327 23.6991 27.6363C23.0054 28.5177 22.5 29.7324 22.5 31.4738L22.5 41.5881H68.1508V31.4738C68.1508 29.7179 67.6599 28.4953 66.9928 27.6138C66.3113 26.7131 65.376 26.0784 64.3682 25.6344C63.3593 25.19 62.33 24.9604 61.5388 24.8443C61.1471 24.7868 60.8234 24.7584 60.6027 24.7445C60.4926 24.7376 60.4089 24.7343 60.3559 24.7328C60.3295 24.732 60.3108 24.7316 60.3004 24.7315L60.2949 24.7314H60.2937H60.2917H30.7328H30.7313H30.7302Z" fill="black"/>
<path d="M44.8867 50V52.6953L35.9688 64.0625H44.8867V66.7578H32.4648V64.0625L41.7695 52.6953H32.6992V50H44.8867Z" fill="black"/>
<path d="M47.1133 66.7578V54.4531H49.5156L49.9023 56.2578C51.082 55.0547 52.4258 54.4531 53.9336 54.4531C56.8477 54.4531 58.3047 55.9688 58.3047 59V66.7578H55.1992V59C55.1992 57.6406 54.5234 56.9609 53.1719 56.9609C52.1641 56.9609 51.1797 57.3633 50.2188 58.168V66.7578H47.1133Z" fill="black"/>
</svg>
