<?xml version="1.0" standalone="no"?>
<!DOCTYPE svg PUBLIC "-//W3C//DTD SVG 20010904//EN"
 "http://www.w3.org/TR/2001/REC-SVG-20010904/DTD/svg10.dtd">
<svg version="1.0" xmlns="http://www.w3.org/2000/svg"
 width="700.000000pt" height="700.000000pt" viewBox="0 0 700.000000 700.000000"
 preserveAspectRatio="xMidYMid meet">
<metadata>
Created by potrace 1.11, written by Peter Selinger 2001-2013
</metadata>
<g transform="translate(0.000000,700.000000) scale(0.100000,-0.100000)"
fill="#000000" stroke="none">
<path d="M3215 6989 c-748 -64 -1435 -351 -1995 -835 -551 -475 -938 -1101
-1114 -1799 -34 -137 -72 -346 -88 -490 -17 -155 -17 -575 0 -730 63 -570 255
-1100 567 -1570 270 -405 644 -771 1047 -1024 457 -287 944 -456 1503 -523
139 -16 595 -16 730 0 847 103 1555 446 2131 1034 204 208 346 389 490 623
269 439 429 910 496 1460 16 130 16 600 0 730 -73 596 -246 1079 -557 1555
-139 213 -239 336 -449 548 -657 668 -1554 1038 -2496 1031 -91 -1 -210 -6
-265 -10z m638 -1755 c18 -9 44 -32 57 -52 l25 -36 3 -602 3 -603 604 -3 c595
-3 604 -3 632 -24 15 -11 38 -36 51 -54 22 -33 22 -37 22 -360 0 -323 0 -327
-22 -360 -13 -18 -36 -43 -51 -54 -28 -21 -37 -21 -632 -24 l-604 -3 -3 -604
c-3 -595 -3 -604 -24 -632 -11 -15 -36 -38 -54 -50 -33 -23 -37 -23 -360 -23
-323 0 -327 0 -360 23 -18 12 -43 35 -54 50 -21 28 -21 37 -24 632 l-2 604
-605 3 c-595 3 -604 3 -632 24 -15 11 -38 36 -50 54 -23 33 -23 37 -23 360 0
323 0 327 23 360 12 18 35 43 50 54 28 21 37 21 632 24 l604 3 3 602 c3 582 4
603 23 635 41 69 52 71 412 72 274 0 327 -2 356 -16z"/>
</g>
</svg>
