<svg width="112" height="32" viewBox="0 0 112 32" fill="none" xmlns="http://www.w3.org/2000/svg">
<circle cx="16" cy="16" r="16" fill="#274462"/>
<path opacity="0.7" d="M54.45 18.827H47.838L46.47 22H44L50.118 8.472H52.113L58.25 22H55.799L54.45 18.827ZM53.633 16.927L51.144 11.132L48.655 16.927H53.633ZM65.414 12.158C66.2373 12.158 66.9657 12.3733 67.599 12.804C68.245 13.222 68.7453 13.8173 69.1 14.59C69.4673 15.35 69.651 16.224 69.651 17.212C69.651 18.2 69.4737 19.0677 69.119 19.815C68.7643 20.5623 68.264 21.1387 67.618 21.544C66.9847 21.9493 66.25 22.152 65.414 22.152C64.7173 22.152 64.0967 22.0063 63.552 21.715C63.0073 21.411 62.5893 20.993 62.298 20.461V26.104H59.942V15.122C59.942 14.1087 59.8913 13.203 59.79 12.405H62.013L62.203 14.058C62.4563 13.4627 62.868 13.0003 63.438 12.671C64.008 12.329 64.6667 12.158 65.414 12.158ZM64.768 20.29C65.566 20.29 66.1803 20.024 66.611 19.492C67.0417 18.96 67.257 18.2 67.257 17.212C67.257 16.2113 67.0417 15.4323 66.611 14.875C66.1803 14.305 65.5723 14.02 64.787 14.02C63.9763 14.02 63.3557 14.2923 62.925 14.837C62.4943 15.3817 62.279 16.1607 62.279 17.174C62.279 18.1747 62.4943 18.9473 62.925 19.492C63.3557 20.024 63.97 20.29 64.768 20.29ZM75.0896 14.191V18.485C75.0896 19.6123 75.6152 20.176 76.6666 20.176C76.9579 20.176 77.2746 20.1253 77.6166 20.024V21.905C77.1986 22.057 76.6919 22.133 76.0966 22.133C75.0072 22.133 74.1712 21.829 73.5886 21.221C73.0059 20.613 72.7146 19.739 72.7146 18.599V14.191H70.8716V12.405H72.7146V10.068L75.0896 9.27V12.405H77.6356V14.191H75.0896ZM88.0658 17.326H81.4538C81.5044 18.352 81.7578 19.112 82.2138 19.606C82.6824 20.0873 83.3728 20.328 84.2848 20.328C85.3361 20.328 86.3114 19.986 87.2108 19.302L87.8948 20.936C87.4388 21.3033 86.8751 21.601 86.2038 21.829C85.5451 22.0443 84.8738 22.152 84.1898 22.152C82.6191 22.152 81.3841 21.7087 80.4848 20.822C79.5854 19.9353 79.1358 18.7193 79.1358 17.174C79.1358 16.1987 79.3321 15.331 79.7248 14.571C80.1174 13.811 80.6684 13.222 81.3778 12.804C82.0871 12.3733 82.8914 12.158 83.7908 12.158C85.1081 12.158 86.1468 12.5887 86.9068 13.45C87.6794 14.2987 88.0658 15.4703 88.0658 16.965V17.326ZM83.8478 13.868C83.2144 13.868 82.6951 14.058 82.2898 14.438C81.8971 14.8053 81.6438 15.3437 81.5298 16.053H85.9948C85.9188 15.331 85.6971 14.7863 85.3298 14.419C84.9751 14.0517 84.4811 13.868 83.8478 13.868ZM97.032 22L92.833 17.573V22H90.477V8.016H92.833V16.642L96.785 12.424H99.654L95.341 17.003L99.996 22H97.032ZM110.389 12.405V22H108.052V20.461C107.761 20.993 107.343 21.411 106.798 21.715C106.253 22.0063 105.633 22.152 104.936 22.152C104.1 22.152 103.359 21.9493 102.713 21.544C102.067 21.1387 101.567 20.5623 101.212 19.815C100.857 19.0677 100.68 18.2 100.68 17.212C100.68 16.224 100.857 15.35 101.212 14.59C101.579 13.8173 102.086 13.222 102.732 12.804C103.378 12.3733 104.113 12.158 104.936 12.158C105.633 12.158 106.253 12.31 106.798 12.614C107.343 12.9053 107.761 13.317 108.052 13.849V12.405H110.389ZM105.582 20.29C106.367 20.29 106.975 20.0177 107.406 19.473C107.837 18.9283 108.052 18.162 108.052 17.174C108.052 16.1607 107.837 15.3817 107.406 14.837C106.975 14.2923 106.361 14.02 105.563 14.02C104.778 14.02 104.163 14.305 103.72 14.875C103.289 15.4323 103.074 16.2113 103.074 17.212C103.074 18.2 103.289 18.96 103.72 19.492C104.163 20.024 104.784 20.29 105.582 20.29Z" fill="white"/>
<path opacity="0.7" d="M17.3333 8C17.7015 8 18 8.31145 18 8.69565L18 23.3043C18 23.6885 17.7015 24 17.3333 24L14.6667 24C14.2985 24 14 23.6885 14 23.3043L14 8.69565C14 8.31145 14.2985 8 14.6667 8L17.3333 8Z" fill="white"/>
<path opacity="0.7" d="M24 17.3333C24 17.7015 23.6885 18 23.3043 18L8.69565 18C8.31145 18 8 17.7015 8 17.3333L8 14.6667C8 14.2985 8.31145 14 8.69565 14L23.3043 14C23.6885 14 24 14.2985 24 14.6667L24 17.3333Z" fill="white"/>
</svg>
