<svg width="100" height="100" viewBox="0 0 100 100" fill="none" xmlns="http://www.w3.org/2000/svg">
<path d="M71.3553 8.98109C71.249 8.79948 71.0969 8.64886 70.9144 8.5442C70.7318 8.43953 70.525 8.38446 70.3145 8.38446C70.1041 8.38446 69.8973 8.43953 69.7147 8.5442C69.5321 8.64886 69.3801 8.79948 69.2737 8.98109L58.2546 27.792C55.4947 26.571 52.5961 25.6914 49.6232 25.1728L48.3643 20.9004H48.724C49.3902 20.9004 49.8443 20.348 49.8443 19.6818V12.9783C49.8523 12.8289 49.8289 12.6794 49.7755 12.5397C49.7221 12.3999 49.6399 12.2729 49.5343 12.1669C49.4287 12.061 49.3019 11.9784 49.1624 11.9245C49.0228 11.8707 48.8734 11.8468 48.724 11.8543H42.0043V4.41642H62.4614L68.7299 7.22072C68.8879 7.28514 69.0579 7.31443 69.2283 7.30655C69.5046 7.30402 69.7719 7.20752 69.9861 7.03291C70.2003 6.8583 70.3487 6.61598 70.4069 6.34582C70.465 6.07567 70.4295 5.79375 70.3062 5.54645C70.1829 5.29914 69.979 5.10118 69.7282 4.98512L63.2217 2.07027C63.062 2.01248 62.8917 1.98992 62.7225 2.00413H29.7963C29.4764 2.00413 29.1696 2.13121 28.9434 2.3574C28.7172 2.5836 28.5902 2.89039 28.5902 3.21028C28.5902 3.53017 28.7172 3.83696 28.9434 4.06315C29.1696 4.28935 29.4764 4.41642 29.7963 4.41642H39.592V11.8543H32.9508C32.7973 11.8454 32.6436 11.8677 32.4991 11.9201C32.3545 11.9724 32.2221 12.0536 32.11 12.1588C31.9978 12.2639 31.9082 12.3908 31.8467 12.5317C31.7852 12.6726 31.753 12.8245 31.7521 12.9783V19.6818C31.7499 20.0022 31.8749 20.3104 32.0996 20.5389C32.3243 20.7673 32.6304 20.8973 32.9508 20.9004H33.3104L32.052 25.1728C28.3797 25.8438 25.0069 26.9338 22.1598 28.4037C16.8978 31.1203 14 34.8224 14 38.831C14 38.8477 14 38.8638 14.001 38.8805C14.0838 40.862 16.0515 87.4368 17.8955 94.0014C18.2078 95.0739 18.862 96.0149 19.7586 96.6811C20.6552 97.3474 21.745 97.7023 22.862 97.6918H58.8128C59.9299 97.7021 61.0197 97.347 61.9163 96.6806C62.8129 96.0142 63.4671 95.073 63.7793 94.0004C64.9141 89.9618 66.0963 70.8987 66.9121 55.0061C68.0301 55.2489 69.1705 55.3735 70.3146 55.3778C73.1626 55.3792 75.9605 54.6284 78.4252 53.2014C80.8899 51.7743 82.934 49.7216 84.3506 47.2509C85.7672 44.7802 86.5062 41.9791 86.4927 39.1311C86.4792 36.2832 85.7137 33.4892 84.2738 31.0321L71.3553 8.98109ZM34.1644 14.2666H47.432V18.4881H34.1644V14.2666ZM35.825 20.9004H45.8499L46.9905 24.7728C42.904 24.2671 38.7707 24.2675 34.6842 24.7742L35.825 20.9004ZM61.4571 93.3479C61.2883 93.9148 60.9383 94.4107 60.4607 94.7596C59.983 95.1085 59.4042 95.2911 58.8128 95.2795H22.862C22.2706 95.2911 21.6918 95.1085 21.2142 94.7596C20.7366 94.4107 20.3866 93.9148 20.2179 93.3479C18.8031 88.313 17.1107 55.4785 16.4123 38.7828C16.425 35.7306 18.858 32.8087 23.2672 30.5329C27.9402 28.1206 34.1805 26.7973 40.8382 26.7973C46.8508 26.7973 52.5378 27.8915 57.0279 29.8844L56.3561 31.0327C55.0005 33.3519 54.2421 35.9715 54.1491 38.6562C54.056 41.3409 54.6311 44.0067 55.8228 46.4143C55.8085 46.4143 55.7942 46.4306 55.7797 46.4306H25.8958C25.7407 46.4271 25.5865 46.4549 25.4424 46.5124C25.2983 46.5699 25.1673 46.6559 25.0571 46.7652C24.947 46.8745 24.8601 47.0048 24.8015 47.1485C24.7429 47.2922 24.7139 47.4462 24.7162 47.6013V88.4143C24.7091 88.7346 24.8293 89.0446 25.0505 89.2764C25.2716 89.5082 25.5756 89.6428 25.8958 89.6508H55.7789C56.4451 89.6508 57.0812 89.0805 57.0812 88.4143V48.3751C57.4832 49.1792 58.2143 49.9419 58.9232 50.6507C60.5212 52.2531 62.4414 53.4978 64.5567 54.3023C63.4257 76.4695 62.3112 90.3082 61.4571 93.3479ZM54.6689 48.8429V87.2385H27.1285V48.8429H54.6689ZM80.0482 48.945C77.6814 51.3116 74.5335 52.7349 71.1932 52.9485C67.853 53.1621 64.5494 52.1514 61.9004 50.1055C59.2515 48.0596 57.4387 45.1186 56.8012 41.8328C56.1637 38.5471 56.7452 35.1416 58.4369 32.2535L70.3146 11.977L82.1922 32.2535C83.7305 34.8812 84.3546 37.9447 83.9666 40.9649C83.5787 43.985 82.2007 46.7913 80.0482 48.945V48.945Z" fill="black"/>
<path d="M76.2845 34.1681H71.5546V29.3811C71.5546 29.0612 71.4275 28.7544 71.2013 28.5282C70.9751 28.302 70.6683 28.1749 70.3484 28.1749C70.0285 28.1749 69.7218 28.302 69.4956 28.5282C69.2694 28.7544 69.1423 29.0612 69.1423 29.3811V34.1681H64.3438C64.024 34.1681 63.7172 34.2951 63.491 34.5213C63.2648 34.7475 63.1377 35.0543 63.1377 35.3742C63.1377 35.6941 63.2648 36.0009 63.491 36.2271C63.7172 36.4533 64.024 36.5804 64.3438 36.5804H69.1423V41.3217C69.1423 41.6416 69.2694 41.9484 69.4956 42.1746C69.7218 42.4008 70.0285 42.5279 70.3484 42.5279C70.6683 42.5279 70.9751 42.4008 71.2013 42.1746C71.4275 41.9484 71.5546 41.6416 71.5546 41.3217V36.5804H76.2845C76.6044 36.5804 76.9112 36.4533 77.1374 36.2271C77.3636 36.0009 77.4906 35.6941 77.4906 35.3742C77.4906 35.0543 77.3636 34.7475 77.1374 34.5213C76.9112 34.2951 76.6044 34.1681 76.2845 34.1681V34.1681Z" fill="black"/>
<path d="M31.7677 65.3268H49.9067C50.2266 65.3268 50.5334 65.1998 50.7596 64.9736C50.9858 64.7474 51.1129 64.4406 51.1129 64.1207C51.1129 63.8008 50.9858 63.494 50.7596 63.2678C50.5334 63.0416 50.2266 62.9146 49.9067 62.9146H31.7677C31.4478 62.9146 31.141 63.0416 30.9148 63.2678C30.6886 63.494 30.5615 63.8008 30.5615 64.1207C30.5615 64.4406 30.6886 64.7474 30.9148 64.9736C31.141 65.1998 31.4478 65.3268 31.7677 65.3268V65.3268Z" fill="black"/>
<path d="M35.7118 57.286H45.964C46.2839 57.286 46.5907 57.1589 46.8169 56.9327C47.0431 56.7065 47.1702 56.3997 47.1702 56.0798C47.1702 55.7599 47.0431 55.4531 46.8169 55.2269C46.5907 55.0007 46.2839 54.8737 45.964 54.8737H35.7118C35.3919 54.8737 35.0851 55.0007 34.8589 55.2269C34.6327 55.4531 34.5056 55.7599 34.5056 56.0798C34.5056 56.3997 34.6327 56.7065 34.8589 56.9327C35.0851 57.1589 35.3919 57.286 35.7118 57.286V57.286Z" fill="black"/>
<path d="M31.7677 72.9658H49.9067C50.2266 72.9658 50.5334 72.8387 50.7596 72.6125C50.9858 72.3863 51.1129 72.0795 51.1129 71.7596C51.1129 71.4397 50.9858 71.1329 50.7596 70.9067C50.5334 70.6805 50.2266 70.5535 49.9067 70.5535H31.7677C31.4478 70.5535 31.141 70.6805 30.9148 70.9067C30.6886 71.1329 30.5615 71.4397 30.5615 71.7596C30.5615 72.0795 30.6886 72.3863 30.9148 72.6125C31.141 72.8387 31.4478 72.9658 31.7677 72.9658V72.9658Z" fill="black"/>
<path d="M31.7677 80.4037H49.9067C50.2266 80.4037 50.5334 80.2767 50.7596 80.0505C50.9858 79.8243 51.1129 79.5175 51.1129 79.1976C51.1129 78.8777 50.9858 78.5709 50.7596 78.3447C50.5334 78.1185 50.2266 77.9915 49.9067 77.9915H31.7677C31.4478 77.9915 31.141 78.1185 30.9148 78.3447C30.6886 78.5709 30.5615 78.8777 30.5615 79.1976C30.5615 79.5175 30.6886 79.8243 30.9148 80.0505C31.141 80.2767 31.4478 80.4037 31.7677 80.4037V80.4037Z" fill="black"/>
</svg>
